# xmcd
#
# Track frame offsets: 
#        150
#        20493
#        43653
#
# Disc length: 963 seconds
#
# Revision: 0
# Processed by: cddbd v1.5.2PL0 Copyright (c) Steve Scherf et al.
# Submitted via: ExactAudioCopy v1.0b3
#
DISCID=1d03c103
DTITLE=GLAY - Bible
DYEAR=2012
DGENRE=j-pop
TTITLE0=Bible
TTITLE1=anohi no shounen
TTITLE2=Thank you for your love
EXTD=
EXTT0=
EXTT1=
EXTT2=
PLAYORDER=
